<svg xmlns="http://www.w3.org/2000/svg" width="1024" height="1024" viewBox="0 0 1024 1024">
<g>
<path d="M 0.00 0.00 L 1024.00 0.00 L 1024.00 1024.00 L 0.00 1024.00 ZM 258.00 739.11 C259.38,739.49 264.34,739.85 269.03,739.90 C279.15,740.02 281.64,738.79 282.49,733.22 C283.62,725.87 286.17,711.47 286.65,709.75 C287.01,708.43 288.19,708.00 291.45,708.00 C295.39,708.00 295.86,708.27 296.98,711.25 C297.65,713.04 299.45,717.42 300.99,721.00 C302.52,724.58 304.57,729.66 305.54,732.30 C306.51,734.94 308.24,737.59 309.37,738.20 C312.05,739.63 334.52,740.59 335.31,739.30 C335.67,738.73 338.04,738.65 341.20,739.10 C350.57,740.43 361.35,740.14 363.70,738.50 C364.88,737.67 367.30,733.85 369.07,730.00 L 372.30 723.00 L 388.03 723.00 C388.84,723.00 389.61,723.00 390.34,723.00 C399.29,722.99 402.78,722.98 404.13,724.68 C404.99,725.76 404.99,727.53 404.99,730.42 C404.99,730.79 404.98,731.19 404.99,731.60 C405.01,738.10 406.92,739.14 419.94,739.76 C431.50,740.31 434.60,739.48 433.54,736.11 C432.75,733.58 419.22,666.30 417.94,658.50 C417.09,653.30 416.68,650.45 415.04,648.89 C413.06,647.00 409.27,647.00 400.67,647.01 L 399.73 647.02 C391.90,647.02 384.96,647.37 384.30,647.79 C383.64,648.21 380.41,653.72 377.11,660.03 C373.82,666.34 366.36,680.50 360.55,691.50 C354.73,702.50 347.18,717.01 343.76,723.75 C340.34,730.49 337.17,736.00 336.72,736.00 C336.27,736.00 335.39,734.55 334.78,732.79 C334.16,731.02 331.10,724.37 327.97,718.02 C327.66,717.40 327.37,716.80 327.09,716.23 C322.45,706.82 321.01,703.89 321.92,702.37 C322.38,701.60 323.47,701.19 325.06,700.47 C329.58,698.43 335.90,691.84 338.42,686.53 C341.05,680.99 341.95,674.08 340.82,668.00 C339.57,661.20 338.70,659.48 334.15,654.72 C327.86,648.14 322.00,647.00 294.47,647.00 C275.62,647.00 270.87,647.27 269.72,648.42 C268.37,649.78 267.51,654.42 262.88,685.50 C261.81,692.65 260.26,702.78 259.44,708.00 C258.61,713.22 257.73,718.85 257.48,720.50 C257.22,722.15 256.53,725.90 255.95,728.83 C254.51,735.99 254.97,738.27 258.00,739.11 ZM 436.50 464.60 L 441.50 466.91 L 497.00 466.37 C555.47,465.79 558.58,465.56 568.39,460.95 C573.35,458.62 579.66,452.57 586.08,444.00 C588.35,440.98 592.12,436.25 594.46,433.50 C596.79,430.75 601.95,424.45 605.91,419.50 C619.23,402.85 631.99,393.39 649.28,387.33 C654.89,385.37 659.21,384.69 668.68,384.27 L 680.87 383.74 L 681.49 380.03 C683.01,371.07 675.67,353.64 665.66,342.41 C653.80,329.10 630.82,318.22 610.99,316.52 C604.20,315.94 603.15,316.10 600.05,318.19 C593.14,322.85 592.60,324.91 591.82,350.00 C591.37,364.44 590.60,374.34 589.68,377.63 C587.51,385.39 582.96,393.17 572.21,407.50 C566.85,414.65 560.05,423.99 557.10,428.26 C554.14,432.54 549.59,437.60 546.97,439.52 C537.46,446.51 540.46,446.20 478.14,446.56 C447.14,446.74 421.56,447.10 421.30,447.37 C419.04,449.63 429.33,461.30 436.50,464.60 ZM 706.50 741.24 C711.42,741.66 724.18,740.10 728.96,738.48 C735.96,736.12 746.49,729.42 750.51,724.75 C759.95,713.81 764.42,699.57 763.79,682.40 C763.43,672.72 763.02,670.56 760.55,665.51 C753.66,651.42 741.23,644.97 721.07,645.02 C701.52,645.06 686.67,652.21 677.53,665.95 C669.54,677.97 666.52,690.97 668.10,706.50 C669.23,717.55 672.15,724.00 678.87,730.28 C686.34,737.27 693.59,740.14 706.50,741.24 ZM 570.38 737.55 C570.84,738.76 574.84,739.00 594.31,739.00 C620.57,739.00 628.46,737.75 638.56,731.96 C652.62,723.92 662.00,704.74 662.00,684.02 C662.00,669.64 657.82,660.34 648.39,653.71 C640.81,648.38 632.37,647.00 607.35,647.00 C586.46,647.00 585.01,647.12 584.05,648.91 C583.49,649.96 582.55,655.24 581.97,660.66 C581.39,666.07 580.51,671.85 580.02,673.50 C579.54,675.15 578.86,678.53 578.52,681.00 C578.18,683.47 576.83,692.25 575.51,700.50 C574.20,708.75 572.91,717.08 572.66,719.00 C572.41,720.92 571.67,725.56 571.02,729.30 C570.36,733.05 570.08,736.76 570.38,737.55 ZM 417.26 432.66 L 421.46 437.06 L 431.41 436.78 L 441.36 436.50 L 444.15 424.00 C447.31,409.86 447.65,401.39 445.45,392.07 C443.48,383.70 441.07,379.96 434.72,375.39 C427.73,370.38 422.62,368.97 409.00,368.31 C395.78,367.66 387.04,369.08 370.12,374.61 C355.49,379.39 346.35,385.02 333.13,397.41 C327.26,402.90 314.00,421.03 314.00,423.56 C314.00,423.80 334.25,424.00 359.01,424.00 C402.80,424.00 404.14,424.06 408.54,426.12 C411.02,427.29 414.94,430.23 417.26,432.66 ZM 376.40 626.60 C376.82,627.69 379.56,628.00 388.99,628.00 C400.54,628.00 401.08,627.91 401.99,625.75 C402.51,624.51 404.34,614.95 406.05,604.50 C407.76,594.05 409.55,585.11 410.01,584.62 C410.93,583.67 417.47,596.12 425.12,613.39 C427.77,619.38 430.70,625.12 431.63,626.14 C433.06,627.72 434.84,628.00 443.62,628.00 C452.43,628.00 454.06,627.74 454.84,626.25 C455.33,625.29 457.37,615.05 459.36,603.50 C469.09,546.93 470.40,538.48 469.71,536.69 C469.16,535.24 467.46,535.00 458.03,535.00 C444.11,535.00 443.73,535.30 441.99,547.63 C439.19,567.58 437.45,576.36 436.25,576.76 C435.49,577.01 433.79,574.47 431.94,570.33 C420.13,543.91 416.44,536.74 414.20,535.89 C410.21,534.37 392.43,534.78 391.06,536.43 C390.41,537.21 387.88,550.37 385.44,565.68 C382.99,580.98 379.84,600.63 378.43,609.35 C377.02,618.06 376.10,625.82 376.40,626.60 ZM 502.23 628.96 C505.13,629.48 512.67,629.73 519.00,629.53 C532.13,629.10 541.31,626.73 547.65,622.14 C550.98,619.73 551.81,618.39 552.78,613.88 C554.36,606.57 558.08,584.60 558.73,578.75 L 559.25 574.00 L 540.69 574.00 C529.65,574.00 521.87,574.40 521.51,574.98 C521.18,575.52 520.29,579.22 519.53,583.21 C517.83,592.12 518.37,593.00 525.60,593.00 C530.87,593.00 530.94,593.04 530.52,595.75 C530.28,597.26 529.83,600.16 529.51,602.18 C529.02,605.32 528.41,606.04 525.35,607.05 C517.66,609.59 506.76,605.22 503.46,598.28 C500.94,592.97 501.16,581.29 503.92,573.92 C506.54,566.94 512.15,560.29 517.44,557.89 C522.61,555.54 536.65,555.39 542.50,557.61 C544.70,558.45 547.29,559.38 548.26,559.69 C550.21,560.30 552.13,558.20 558.18,548.84 L 561.91 543.07 L 559.37 541.08 C552.73,535.85 537.77,532.48 524.68,533.26 C508.83,534.21 496.09,539.75 487.08,549.60 C475.74,562.01 471.28,578.61 473.88,598.74 C475.12,608.40 476.58,611.57 482.84,618.26 C488.20,623.99 494.77,627.62 502.23,628.96 ZM 310.34 628.96 C321.13,631.09 339.20,628.96 347.96,624.52 C355.42,620.74 362.68,611.89 365.16,603.56 C367.91,594.33 376.51,540.76 375.80,537.30 C375.56,536.12 373.06,535.76 363.34,535.49 C352.94,535.20 350.96,535.40 349.70,536.83 C348.80,537.85 347.21,545.32 345.62,556.00 C344.19,565.62 342.41,577.55 341.65,582.50 C340.12,592.51 337.03,600.68 333.52,603.98 C330.62,606.70 324.05,607.68 319.97,605.99 C316.68,604.62 314.00,600.52 313.99,596.80 C313.99,595.53 316.09,581.85 318.65,566.39 C321.22,550.93 323.05,537.56 322.71,536.69 C322.18,535.30 320.47,535.17 309.80,535.67 C302.78,536.00 297.02,536.73 296.37,537.37 C295.75,537.99 294.54,543.00 293.69,548.50 C292.83,554.00 290.71,566.83 288.98,577.00 C286.82,589.69 285.97,597.54 286.27,602.00 C287.20,615.86 296.44,626.21 310.34,628.96 ZM 669.50 628.62 C676.81,630.60 695.05,629.71 702.09,627.03 C714.08,622.46 721.99,613.13 725.44,599.47 C728.61,586.90 736.31,538.31 735.37,536.79 C734.52,535.42 710.38,535.84 709.24,537.25 C708.68,537.94 706.12,551.33 703.54,567.00 C700.97,582.67 698.10,597.07 697.18,598.99 C693.85,605.90 685.53,608.88 678.98,605.49 C675.59,603.74 674.00,601.20 674.00,597.54 C674.00,596.12 676.03,582.62 678.50,567.55 C680.97,552.49 683.00,539.22 683.00,538.08 C683.00,536.08 682.50,536.00 670.12,536.00 C660.99,536.00 656.97,536.36 656.30,537.25 C655.79,537.94 653.37,549.75 650.93,563.50 C645.55,593.86 645.03,606.61 648.87,613.89 C652.95,621.64 658.59,625.66 669.50,628.62 ZM 443.25 739.32 C449.61,740.20 464.89,739.52 466.10,738.31 C466.75,737.65 468.13,731.57 469.16,724.81 C470.19,718.04 471.24,711.94 471.49,711.25 C471.80,710.37 474.76,710.00 481.52,710.00 C491.72,710.00 503.24,707.90 509.01,704.98 C513.22,702.85 522.05,693.73 524.54,688.94 C525.75,686.60 526.45,682.48 526.74,676.00 C527.14,667.10 526.99,666.15 524.33,661.00 C520.85,654.24 514.70,649.82 506.47,648.16 C498.23,646.51 456.57,646.58 455.28,648.25 C454.20,649.63 452.31,659.45 448.48,683.50 C447.07,692.30 444.59,707.64 442.96,717.60 C441.33,727.55 440.00,736.41 440.00,737.28 C440.00,738.32 441.13,739.03 443.25,739.32 ZM 219.50 515.46 C216.61,516.56 268.79,514.53 294.50,512.55 C339.23,509.09 367.51,508.50 488.25,508.50 C554.11,508.50 608.00,508.32 608.00,508.11 C608.00,507.90 605.02,504.79 601.38,501.20 L 594.76 494.67 L 516.84 495.35 C439.14,496.03 419.54,496.60 372.82,499.54 L 348.14 501.09 L 341.23 497.62 C334.41,494.18 329.36,489.55 326.64,484.24 C321.42,474.05 322.41,458.50 329.12,445.38 C331.28,441.16 332.92,437.62 332.77,437.50 C332.62,437.39 330.92,436.76 329.00,436.11 C325.71,434.99 325.36,435.09 323.22,437.71 C314.89,447.89 310.53,464.81 312.81,478.12 C314.16,485.98 318.66,495.67 322.69,499.41 C325.88,502.37 325.54,503.00 320.70,503.19 C318.17,503.28 316.03,502.50 313.48,500.55 C310.10,497.97 309.56,497.86 305.67,498.92 C303.38,499.54 294.30,501.37 285.50,502.97 C276.70,504.58 262.30,507.29 253.50,508.99 C244.70,510.69 233.68,512.76 229.00,513.58 C224.32,514.41 220.05,515.25 219.50,515.46 ZM 634.50 481.65 C636.47,482.57 639.90,482.92 644.50,482.68 C656.10,482.07 666.68,475.52 672.72,465.21 C677.47,457.10 675.64,444.33 669.39,441.96 C666.41,440.82 658.99,440.68 659.01,441.75 C659.02,442.16 659.92,445.35 661.01,448.84 C662.11,452.33 663.00,455.95 663.00,456.90 C663.00,459.06 660.39,462.72 659.49,461.83 C659.12,461.46 657.55,456.28 656.00,450.33 C654.44,444.37 652.40,436.93 651.46,433.80 C650.52,430.66 650.03,427.38 650.36,426.50 C651.19,424.34 658.61,421.17 669.45,418.34 C681.60,415.16 697.83,415.06 706.83,418.10 C714.58,420.72 726.59,428.46 730.78,433.55 C732.52,435.66 734.18,437.15 734.47,436.86 C735.38,435.95 731.14,424.89 728.01,420.01 C726.37,417.45 721.75,412.20 717.76,408.34 C705.55,396.53 693.11,392.05 672.43,392.02 C645.41,391.97 637.91,396.51 612.75,428.11 C597.95,446.70 597.73,447.00 598.81,447.00 C600.25,447.00 620.96,437.63 625.00,435.15 C631.36,431.26 632.23,431.83 637.24,443.25 C643.50,457.52 644.71,460.89 645.52,466.29 L 646.23 471.00 L 643.19 471.00 C641.06,471.00 639.49,470.17 637.97,468.25 C636.12,465.92 635.87,464.66 636.36,459.97 C636.85,455.11 636.63,454.08 634.48,451.47 L 632.03 448.50 L 630.04 451.00 C627.72,453.91 625.00,462.46 625.00,466.84 C625.00,473.10 628.78,478.99 634.50,481.65 ZM 636.50 515.13 C640.75,516.17 647.63,516.88 654.00,516.91 C691.37,517.13 721.99,495.71 727.03,465.82 C730.31,446.39 721.71,433.74 701.07,427.61 C693.80,425.46 693.53,425.53 695.97,428.96 C703.42,439.43 703.83,457.47 696.92,471.16 C693.23,478.46 683.32,489.10 676.65,492.91 C662.53,500.99 643.67,502.73 630.78,497.14 C624.97,494.63 617.81,488.16 615.13,483.02 C611.30,475.67 610.43,466.13 612.54,454.67 C613.02,452.10 612.86,451.91 610.78,452.55 C607.97,453.42 604.12,455.47 601.61,457.44 C599.89,458.79 599.76,459.95 600.25,469.71 C601.04,485.72 605.18,495.59 614.50,503.69 C621.01,509.35 628.19,513.08 636.50,515.13 ZM 222.15 626.68 C223.73,628.58 246.30,628.55 247.88,626.64 C249.14,625.12 251.45,613.01 255.98,584.00 C257.66,573.28 259.29,563.26 259.60,561.75 L 260.16 559.00 L 270.92 559.00 C283.85,559.00 284.10,558.82 287.00,547.52 C287.32,546.23 287.66,545.09 287.96,544.08 C288.76,541.39 289.30,539.59 288.68,538.37 C287.40,535.88 281.23,535.91 262.37,535.97 C258.90,535.99 255.00,536.00 250.62,536.00 C219.68,536.00 212.03,536.26 211.13,537.35 C209.86,538.87 206.21,556.14 206.79,557.87 C207.04,558.63 211.25,559.00 219.58,559.00 C220.85,559.00 221.99,558.99 223.02,558.98 C227.78,558.93 230.22,558.91 231.24,560.10 C232.31,561.36 231.80,563.96 230.75,569.32 C230.53,570.43 230.29,571.65 230.04,573.00 C224.28,603.67 221.08,625.40 222.15,626.68 ZM 764.33 628.32 C771.37,628.89 782.29,628.11 783.45,626.94 C783.98,626.42 786.91,611.03 789.97,592.75 L 795.53 559.50 L 807.17 559.22 C814.96,559.03 819.15,558.52 819.84,557.69 C821.36,555.86 826.14,538.81 825.56,537.29 C824.85,535.44 748.72,535.39 747.27,537.25 C746.74,537.94 745.75,541.42 745.07,545.00 C744.39,548.58 743.41,552.56 742.89,553.86 C741.14,558.23 743.07,559.00 755.77,559.00 L 767.29 559.00 L 766.65 565.83 C766.30,569.59 764.01,584.53 761.55,599.03 C758.40,617.64 757.39,625.77 758.12,626.65 C758.70,627.34 761.49,628.09 764.33,628.32 ZM 595.00 266.57 C601.04,268.25 603.47,268.26 607.28,266.61 C610.35,265.29 620.86,255.41 619.94,254.72 C619.45,254.34 608.77,250.06 602.22,247.60 C590.93,243.36 570.07,227.75 566.42,220.80 C563.41,215.08 565.77,205.80 570.93,203.04 C572.05,202.44 575.79,201.98 579.24,202.03 C582.68,202.08 590.93,201.82 597.57,201.46 C607.79,200.90 611.28,201.13 620.40,202.98 C626.33,204.18 631.35,204.99 631.56,204.77 C632.53,203.80 629.74,197.14 626.94,193.75 C619.75,185.03 609.89,180.57 594.08,178.92 C576.28,177.06 563.45,180.71 553.78,190.38 C544.23,199.93 538.73,217.76 542.38,227.33 C546.42,237.90 578.84,262.07 595.00,266.57 ZM 565.61 626.43 C566.14,627.81 570.00,628.00 597.99,628.00 L 629.76 628.00 L 630.88 625.25 C632.02,622.44 636.00,607.36 636.00,605.84 C636.00,605.38 627.22,605.00 616.50,605.00 L 597.00 605.00 L 597.01 602.25 C597.01,600.74 597.94,594.10 599.08,587.50 C600.21,580.90 601.55,572.80 602.04,569.50 C602.54,566.20 603.87,558.10 605.01,551.50 C606.15,544.90 607.17,538.86 607.29,538.08 C607.42,537.23 606.11,536.29 604.00,535.72 C599.77,534.57 582.26,535.54 580.48,537.02 C579.78,537.60 579.00,539.52 578.74,541.29 C578.48,543.05 577.29,550.35 576.08,557.50 C568.34,603.62 565.08,625.05 565.61,626.43 ZM 486.00 406.72 C489.02,407.28 494.76,407.80 498.74,407.87 L 505.97 408.00 L 509.74 401.96 C515.80,392.23 529.84,370.20 535.85,361.00 C544.26,348.11 545.16,342.56 539.60,337.77 C536.29,334.91 520.50,327.57 509.00,323.54 C489.41,316.68 458.28,311.61 449.00,313.77 C444.97,314.70 444.74,316.23 448.55,316.74 C457.83,317.98 495.24,332.43 514.10,342.05 L 518.29 344.19 L 514.46 346.35 C512.35,347.53 509.18,350.52 507.41,353.00 C504.34,357.28 479.61,405.01 480.21,405.48 C480.37,405.60 482.98,406.16 486.00,406.72 ZM 529.63 739.15 C533.57,739.88 545.69,740.10 549.70,739.51 C554.39,738.82 554.48,738.66 555.93,729.00 C557.94,715.52 560.97,696.20 562.36,688.00 C567.12,659.94 568.13,652.99 567.83,650.40 L 567.50 647.50 L 555.64 647.22 C548.33,647.04 543.29,647.34 542.50,648.00 C541.03,649.22 539.40,658.01 534.41,691.50 L 533.59 697.03 C528.10,733.95 527.46,738.25 528.76,738.95 C528.99,739.08 529.29,739.09 529.63,739.15 ZM 506.04 311.20 C512.19,314.22 530.24,313.21 547.43,308.87 C556.65,306.54 561.00,304.52 561.00,302.55 C561.00,300.67 573.40,299.26 575.40,300.92 C576.16,301.55 581.00,302.72 586.14,303.52 C591.29,304.31 596.50,305.25 597.73,305.59 C599.52,306.10 600.17,305.69 600.98,303.55 C603.11,297.96 602.28,294.51 597.75,290.05 C591.08,283.48 586.88,281.72 579.09,282.22 C575.46,282.45 570.70,283.46 568.50,284.46 L 564.50 286.27 L 569.60 287.89 C574.51,289.44 578.00,291.53 578.00,292.90 C578.00,293.26 574.29,294.14 569.75,294.85 C559.98,296.38 556.44,297.89 556.66,300.43 C556.81,302.14 556.68,302.13 554.80,300.24 C552.99,298.43 552.90,297.83 553.99,294.54 C554.65,292.52 554.93,290.60 554.61,290.27 C553.86,289.53 547.64,289.26 527.25,289.12 L 511.00 289.00 L 511.01 283.75 C511.03,275.38 514.51,264.61 518.78,259.75 C519.62,258.79 519.83,258.00 519.23,258.00 C517.33,258.00 508.17,269.13 505.60,274.57 C501.96,282.24 498.95,291.77 498.34,297.50 C497.90,301.66 498.21,303.09 500.19,306.00 C501.50,307.92 504.13,310.27 506.04,311.20 ZM 453.39 432.82 C452.76,435.97 452.79,436.00 456.74,436.00 C460.55,436.00 460.77,435.83 461.32,432.45 C461.89,428.88 475.73,400.09 485.74,381.63 C488.68,376.20 490.91,371.57 490.68,371.35 C490.46,371.12 487.85,370.71 484.89,370.42 C470.36,369.04 463.73,366.54 436.85,352.33 C430.90,349.19 429.27,348.79 421.35,348.55 C409.67,348.19 397.75,349.22 397.29,350.63 C397.03,351.40 400.60,351.90 408.71,352.22 C423.74,352.83 433.29,355.90 439.73,362.22 C444.81,367.21 451.24,379.17 453.33,387.50 C456.31,399.40 456.34,418.07 453.39,432.82 ZM 721.60 716.95 C712.76,721.23 702.51,718.79 698.27,711.40 C692.81,701.87 697.31,678.36 705.96,671.23 C711.19,666.92 722.34,665.65 728.64,668.63 C734.18,671.26 735.51,674.86 735.44,687.00 C735.40,695.16 734.93,698.64 733.34,702.63 C730.47,709.78 726.57,714.55 721.60,716.95 ZM 352.76 488.06 C357.05,489.45 366.92,488.44 373.50,485.95 C381.59,482.88 390.44,474.06 394.87,464.64 C396.65,460.86 397.97,457.67 397.80,457.56 C397.10,457.06 385.82,454.85 385.55,455.16 C385.39,455.35 384.47,457.08 383.52,459.00 C381.40,463.26 376.39,468.71 373.00,470.46 C368.37,472.84 361.83,473.19 358.01,471.26 C353.80,469.13 352.03,465.90 352.01,460.27 C352.00,455.80 354.60,448.00 356.11,448.00 C356.60,448.00 357.00,447.58 357.00,447.07 C357.00,446.56 354.54,445.43 351.54,444.55 C348.53,443.68 345.38,442.70 344.54,442.38 C343.39,441.94 342.12,443.66 339.53,449.14 C333.62,461.65 333.82,472.31 340.11,479.47 C343.42,483.24 348.49,486.68 352.76,488.06 ZM 274.01 344.67 C273.14,345.58 366.34,343.93 369.00,342.99 C372.27,341.85 400.10,338.08 416.00,336.64 L 428.50 335.50 L 429.07 331.50 C429.38,329.30 429.97,326.49 430.38,325.25 C431.04,323.27 430.80,323.00 428.32,323.01 C426.77,323.01 416.95,324.34 406.50,325.96 C396.05,327.58 375.71,330.50 361.31,332.45 C346.90,334.39 330.93,336.64 325.81,337.44 C320.69,338.24 307.06,340.08 295.51,341.52 C283.97,342.96 274.29,344.38 274.01,344.67 ZM 615.30 717.07 C613.21,717.56 610.60,717.89 609.50,717.82 C605.96,717.57 601.00,716.88 601.00,716.63 C601.00,716.01 605.10,687.51 606.48,678.59 C607.31,673.14 608.00,668.48 608.00,668.23 C608.00,667.16 624.81,668.70 627.50,670.03 C629.26,670.89 631.46,673.36 632.82,676.00 C634.84,679.90 635.07,681.43 634.55,687.50 C633.12,704.40 626.58,714.45 615.30,717.07 ZM 657.50 325.24 C658.60,325.45 659.63,325.55 659.78,325.45 C659.94,325.35 659.12,321.81 657.96,317.58 C654.27,304.14 655.02,295.91 660.78,286.62 L 663.18 282.75 L 654.34 283.45 C643.27,284.33 638.56,285.69 624.35,292.11 L 613.00 297.24 L 613.00 308.93 L 622.58 311.92 C627.85,313.57 637.41,317.15 643.83,319.88 C650.25,322.61 656.40,325.02 657.50,325.24 ZM 485.16 795.69 C485.90,796.59 487.80,796.99 490.41,796.80 L 494.50 796.50 L 495.24 787.50 C496.23,775.37 496.43,774.85 498.36,779.50 C501.81,787.83 502.36,788.48 506.23,788.81 C509.78,789.10 509.97,788.95 512.52,783.56 C513.96,780.50 515.56,778.00 516.07,778.00 C516.58,778.00 517.00,781.77 517.00,786.38 C517.00,796.01 517.82,797.30 523.68,796.81 L 527.50 796.50 L 528.00 777.50 C528.28,766.77 528.10,757.94 527.59,757.20 C526.99,756.36 524.92,756.01 521.59,756.20 L 516.50 756.50 L 511.86 765.80 C509.30,770.92 506.85,775.12 506.41,775.14 C505.97,775.16 503.75,770.97 501.48,765.84 L 497.35 756.50 L 486.50 756.50 L 485.24 775.39 C484.28,789.82 484.26,794.61 485.16,795.69 ZM 432.40 795.61 C432.75,796.52 434.54,797.00 437.55,797.00 C442.00,797.00 442.22,796.86 443.73,793.00 L 445.30 789.00 L 459.84 789.00 L 461.67 792.75 C463.42,796.34 463.71,796.50 468.50,796.50 C472.35,796.50 473.46,796.15 473.34,795.00 C473.25,794.17 470.55,785.17 467.34,775.00 L 461.49 756.50 L 455.40 756.21 C451.31,756.01 448.96,756.34 448.24,757.22 C446.09,759.80 431.88,794.26 432.40,795.61 ZM 586.61 796.18 C586.93,796.69 589.28,796.97 591.84,796.80 C596.08,796.53 596.68,796.16 598.50,792.75 L 600.50 789.01 L 607.17 789.00 L 613.84 789.00 L 614.97 792.41 C615.59,794.29 616.79,796.09 617.63,796.41 C620.38,797.47 627.00,797.06 627.00,795.83 C627.00,793.67 621.93,775.58 618.63,766.00 L 615.37 756.50 L 610.10 756.19 C604.24,755.86 602.57,756.77 600.54,761.42 C599.79,763.11 597.30,768.78 594.99,774.00 C588.25,789.27 586.01,795.20 586.61,796.18 ZM 213.00 386.00 C231.95,387.62 324.10,386.20 324.74,384.28 C325.13,383.11 335.39,374.67 339.50,372.14 C341.15,371.12 340.08,371.01 333.50,371.52 C316.76,372.81 267.37,378.08 240.26,381.47 C224.73,383.41 210.55,385.08 208.76,385.18 C206.97,385.28 208.88,385.65 213.00,386.00 ZM 543.37 795.75 C543.85,796.44 545.96,797.00 548.06,797.00 C552.74,797.00 553.36,796.11 554.00,788.50 C554.29,784.95 554.97,782.50 555.65,782.50 C556.28,782.50 558.94,785.42 561.55,789.00 C564.17,792.58 566.80,795.83 567.41,796.23 C568.01,796.64 570.91,796.98 573.86,796.98 C574.01,796.99 574.16,796.99 574.31,796.99 C576.54,797.00 577.93,797.00 578.35,796.37 C579.03,795.33 577.13,792.59 572.13,785.37 L 571.51 784.47 C567.93,779.30 565.00,774.78 565.00,774.41 C565.00,774.04 568.15,770.03 572.00,765.50 C575.85,760.97 579.00,756.97 579.00,756.63 C579.00,756.28 576.34,756.00 573.10,756.00 L 567.20 756.00 L 554.06 770.50 L 554.00 755.90 L 543.50 756.50 L 543.00 775.50 C542.72,785.95 542.89,795.06 543.37,795.75 ZM 272.50 450.99 C284.60,451.98 295.32,452.73 296.33,452.65 C297.62,452.54 298.74,450.75 300.17,446.50 C301.28,443.20 302.66,439.93 303.23,439.23 C303.81,438.53 304.04,437.70 303.73,437.40 C302.89,436.56 260.37,438.84 235.68,441.05 C223.68,442.12 210.99,443.00 207.49,443.00 C196.12,443.00 199.74,444.63 213.80,445.84 C221.33,446.49 232.68,447.50 239.00,448.10 C245.32,448.70 260.40,450.00 272.50,450.99 ZM 446.00 305.58 C446.00,305.92 448.56,303.86 451.69,301.00 C454.82,298.14 460.86,293.15 465.12,289.91 C469.99,286.20 472.98,283.19 473.18,281.79 C473.36,280.57 474.76,278.88 476.31,278.03 C478.89,276.62 479.22,276.64 480.48,278.33 C481.77,280.08 481.93,280.03 483.59,277.51 C484.54,276.05 485.38,273.38 485.44,271.58 C485.50,269.78 486.31,267.22 487.24,265.90 L 488.92 263.50 L 490.77 265.83 L 492.62 268.15 L 495.89 265.10 C500.36,260.92 509.75,255.34 517.26,252.39 C524.34,249.61 538.50,246.00 542.33,246.00 C543.73,246.00 545.16,245.55 545.50,245.00 C545.90,244.35 541.88,244.00 534.17,244.00 C511.47,244.00 496.80,249.65 474.62,266.92 C466.43,273.30 454.72,287.60 449.99,297.03 C447.79,301.39 446.00,305.24 446.00,305.58 ZM 672.14 324.25 C673.55,325.23 674.25,325.75 674.98,325.79 C675.75,325.84 676.56,325.35 678.29,324.29 L 678.60 324.10 C685.29,320.02 689.02,309.21 687.03,299.66 C685.76,293.54 680.91,287.03 676.13,285.05 C671.90,283.30 669.33,285.04 666.29,291.68 C664.05,296.56 663.81,298.19 664.19,305.85 C664.54,312.98 665.07,315.21 667.20,318.55 C668.62,320.78 670.84,323.35 672.14,324.25 ZM 798.00 516.91 C818.14,518.44 822.22,518.05 807.00,516.04 C802.32,515.43 781.50,511.51 760.73,507.34 L 722.96 499.75 L 717.23 505.12 C714.08,508.08 711.38,510.74 711.23,511.05 C710.99,511.56 722.63,512.37 769.00,515.04 C779.17,515.63 792.22,516.47 798.00,516.91 ZM 395.20 795.80 C396.01,796.61 400.58,797.00 409.23,797.00 L 410.00 797.00 C418.24,797.00 421.13,797.00 422.28,795.59 C422.94,794.78 423.02,793.50 423.21,791.50 L 423.50 788.50 L 406.00 787.92 L 406.00 756.00 L 401.20 756.00 C398.56,756.00 395.86,756.54 395.20,757.20 C393.51,758.89 393.51,794.11 395.20,795.80 ZM 346.00 779.37 C358.01,780.90 363.73,781.27 364.23,780.55 C364.64,779.97 364.98,778.10 364.98,776.39 L 365.00 773.28 L 356.75 772.71 C352.21,772.39 338.83,771.44 327.00,770.59 C315.17,769.74 294.48,768.33 281.00,767.46 C267.52,766.60 253.91,765.63 250.75,765.32 C247.25,764.97 245.00,765.14 245.00,765.74 C245.00,766.28 248.94,767.03 253.75,767.41 C258.56,767.79 269.70,769.16 278.50,770.47 C287.30,771.77 302.15,773.80 311.50,774.99 C320.85,776.18 336.38,778.15 346.00,779.37 ZM 513.50 430.97 C525.13,432.05 530.00,432.11 530.00,431.17 C530.00,429.97 526.14,426.64 521.14,423.54 C518.74,422.05 514.91,419.13 512.64,417.06 L 508.50 413.29 L 493.79 412.64 C480.10,412.04 479.00,412.13 478.08,413.85 C477.29,415.33 477.64,416.23 479.79,418.24 C485.61,423.69 502.08,429.91 513.50,430.97 ZM 653.43 779.68 C653.52,779.91 653.53,780.12 653.62,780.29 C654.18,781.38 657.74,780.93 703.53,775.21 C706.77,774.81 710.22,774.38 713.90,773.92 C739.97,770.66 762.55,768.00 764.09,768.00 C765.62,768.00 767.20,767.48 767.60,766.84 C768.13,765.98 766.52,765.85 761.40,766.33 C752.34,767.17 706.63,769.89 677.00,771.34 L 653.50 772.50 L 653.18 775.33 C653.00,776.89 653.11,778.85 653.43,779.68 ZM 529.83 483.59 C577.85,485.06 583.23,485.12 582.76,484.25 C582.54,483.84 581.51,481.53 580.47,479.11 L 578.59 474.73 L 568.54 475.41 C546.28,476.93 517.94,479.08 508.50,479.97 C503.00,480.48 497.19,480.92 495.58,480.95 C493.98,480.98 493.00,481.34 493.42,481.75 C493.83,482.16 510.22,482.99 529.83,483.59 ZM 334.00 316.18 C334.00,316.67 344.53,316.78 358.25,316.42 C371.59,316.07 393.94,315.50 407.92,315.14 L 433.34 314.50 L 434.77 310.19 C435.56,307.82 435.97,305.64 435.68,305.35 C434.96,304.62 417.32,306.51 386.50,310.63 C372.20,312.53 354.54,314.36 347.25,314.70 C339.96,315.03 334.00,315.69 334.00,316.18 ZM 620.55 249.41 C621.61,250.19 622.78,250.64 623.14,250.41 C625.09,249.21 630.99,238.78 632.39,234.07 C634.04,228.52 634.61,212.45 633.23,210.41 C632.83,209.81 631.10,209.04 629.38,208.71 L 626.27 208.10 L 626.36 217.80 C626.44,225.86 626.12,228.02 624.48,230.60 L 622.50 233.71 L 622.47 221.98 C622.46,213.65 622.06,209.77 621.10,208.62 C618.94,206.02 618.02,206.75 619.19,210.12 C620.73,214.52 619.55,228.45 617.09,235.04 C615.97,238.04 614.90,241.50 614.72,242.72 C614.54,243.95 614.07,245.26 613.69,245.64 C612.26,247.07 613.09,248.00 615.81,248.00 C617.35,248.00 619.49,248.64 620.55,249.41 ZM 491.79 688.01 C487.56,689.93 476.11,690.82 475.90,689.25 C475.61,687.13 476.18,680.76 477.19,674.75 L 478.32 668.00 L 486.66 668.00 C493.63,668.00 495.32,668.32 496.97,669.97 C500.07,673.07 500.40,676.31 498.13,681.44 C496.51,685.09 495.19,686.47 491.79,688.01 ZM 304.17 687.97 C299.32,689.32 291.29,689.28 290.44,687.91 C290.07,687.31 290.25,684.27 290.85,681.16 C291.44,678.05 292.19,673.81 292.51,671.75 L 293.09 668.00 L 300.91 668.00 C307.31,668.00 309.21,668.38 311.37,670.07 C317.17,674.64 312.77,685.58 304.17,687.97 ZM 362.00 368.44 C362.00,371.41 362.52,371.52 367.29,369.52 C369.24,368.71 374.13,367.57 378.16,366.99 C390.20,365.25 390.27,365.22 389.61,362.58 C388.93,359.89 390.58,354.32 392.80,351.74 C393.64,350.78 394.10,349.77 393.84,349.51 C393.04,348.71 368.66,354.03 366.39,355.50 C364.26,356.87 362.00,363.55 362.00,368.44 ZM 242.00 413.14 C242.00,413.69 254.87,413.97 273.60,413.83 L 305.19 413.59 L 307.51 408.80 L 309.82 404.00 L 307.56 404.00 C304.39,404.00 252.90,410.33 245.25,411.66 C243.46,411.97 242.00,412.64 242.00,413.14 ZM 537.82 392.79 C532.85,403.18 532.90,403.15 546.02,388.00 C554.76,377.91 558.11,372.13 557.21,368.71 C556.91,367.56 554.60,364.56 552.08,362.06 L 547.50 357.50 L 546.88 365.00 C546.18,373.44 544.26,379.32 537.82,392.79 ZM 399.99 698.25 L 400.00 702.00 L 392.17 702.00 C387.86,702.00 384.09,701.75 383.78,701.45 C383.48,701.15 384.09,698.64 385.13,695.89 C387.90,688.60 395.03,674.70 395.68,675.34 C396.59,676.26 399.98,694.24 399.99,698.25 ZM 457.22 779.44 C456.38,780.28 450.00,780.11 450.00,779.25 C449.99,777.75 453.41,769.00 454.01,769.00 C454.88,769.00 457.89,778.77 457.22,779.44 ZM 610.70 777.25 C611.22,779.85 611.05,780.00 607.62,780.00 C605.63,780.00 604.00,779.66 604.00,779.25 C604.00,778.84 604.86,776.25 605.92,773.50 L 607.83 768.50 L 608.99 771.50 C609.62,773.15 610.39,775.74 610.70,777.25 Z" fill="rgb(6,4,5)"/>
<path d="M 219.50 515.46 C220.05,515.25 224.32,514.41 229.00,513.58 C233.68,512.76 244.70,510.69 253.50,508.99 C262.30,507.29 276.70,504.58 285.50,502.97 C294.30,501.37 303.38,499.54 305.67,498.92 C309.56,497.86 310.10,497.97 313.48,500.55 C316.03,502.50 318.17,503.28 320.70,503.19 C325.54,503.00 325.88,502.37 322.69,499.41 C318.66,495.67 314.16,485.98 312.81,478.12 C310.53,464.81 314.89,447.89 323.22,437.71 C325.36,435.09 325.71,434.99 329.00,436.11 C330.92,436.76 332.62,437.39 332.77,437.50 C332.92,437.62 331.28,441.16 329.12,445.38 C322.41,458.50 321.42,474.05 326.64,484.24 C329.36,489.55 334.41,494.18 341.23,497.62 L 348.14 501.09 L 372.82 499.54 C419.54,496.60 439.14,496.03 516.84,495.35 L 594.76 494.67 L 601.38 501.20 C605.02,504.79 608.00,507.90 608.00,508.11 C608.00,508.32 554.11,508.50 488.25,508.50 C367.51,508.50 339.23,509.09 294.50,512.55 C268.79,514.53 216.61,516.56 219.50,515.46 ZM 636.50 515.13 C628.19,513.08 621.01,509.35 614.50,503.69 C605.18,495.59 601.04,485.72 600.25,469.71 C599.76,459.95 599.89,458.79 601.61,457.44 C604.12,455.47 607.97,453.42 610.78,452.55 C612.86,451.91 613.02,452.10 612.54,454.67 C610.43,466.13 611.30,475.67 615.13,483.02 C617.81,488.16 624.97,494.63 630.78,497.14 C643.67,502.73 662.53,500.99 676.65,492.91 C683.32,489.10 693.23,478.46 696.92,471.16 C703.83,457.47 703.42,439.43 695.97,428.96 C693.53,425.53 693.80,425.46 701.07,427.61 C721.71,433.74 730.31,446.39 727.03,465.82 C721.99,495.71 691.37,517.13 654.00,516.91 C647.63,516.88 640.75,516.17 636.50,515.13 ZM 486.00 406.72 C482.98,406.16 480.37,405.60 480.21,405.48 C479.61,405.01 504.34,357.28 507.41,353.00 C509.18,350.52 512.35,347.53 514.46,346.35 L 518.29 344.19 L 514.10 342.05 C495.24,332.43 457.83,317.98 448.55,316.74 C444.74,316.23 444.97,314.70 449.00,313.77 C458.28,311.61 489.41,316.68 509.00,323.54 C520.50,327.57 536.29,334.91 539.60,337.77 C545.16,342.56 544.26,348.11 535.85,361.00 C529.84,370.20 515.80,392.23 509.74,401.96 L 505.97 408.00 L 498.74 407.87 C494.76,407.80 489.02,407.28 486.00,406.72 ZM 798.00 516.91 C792.22,516.47 779.17,515.63 769.00,515.04 C722.63,512.37 710.99,511.56 711.23,511.05 C711.38,510.74 714.08,508.08 717.23,505.12 L 722.96 499.75 L 760.73 507.34 C781.50,511.51 802.32,515.43 807.00,516.04 C822.22,518.05 818.14,518.44 798.00,516.91 ZM 513.50 430.97 C502.08,429.91 485.61,423.69 479.79,418.24 C477.64,416.23 477.29,415.33 478.08,413.85 C479.00,412.13 480.10,412.04 493.79,412.64 L 508.50 413.29 L 512.64 417.06 C514.91,419.13 518.74,422.05 521.14,423.54 C526.14,426.64 530.00,429.97 530.00,431.17 C530.00,432.11 525.13,432.05 513.50,430.97 ZM 537.82 392.79 C544.26,379.32 546.18,373.44 546.88,365.00 L 547.50 357.50 L 552.08 362.06 C554.60,364.56 556.91,367.56 557.21,368.71 C558.11,372.13 554.76,377.91 546.02,388.00 C532.90,403.15 532.85,403.18 537.82,392.79 ZM 667.44 318.93 C667.36,318.80 667.28,318.68 667.20,318.55 C665.07,315.21 664.54,312.98 664.19,305.85 C663.81,298.19 664.05,296.56 666.29,291.68 C669.33,285.04 671.90,283.30 676.13,285.05 C678.13,285.88 680.14,287.50 681.90,289.55 C678.17,285.40 673.47,283.52 671.00,286.50 C670.00,287.71 670.02,288.00 671.13,288.02 C674.64,288.05 674.97,289.53 672.53,294.34 C671.21,296.96 669.62,301.66 669.00,304.80 C668.39,307.93 667.43,311.69 666.86,313.15 C666.20,314.88 666.44,316.93 667.44,318.93 ZM 617.72 248.24 C617.06,248.09 616.39,248.00 615.81,248.00 C613.09,248.00 612.26,247.07 613.69,245.64 C614.07,245.26 614.54,243.95 614.72,242.72 C614.90,241.50 615.97,238.04 617.09,235.04 C619.55,228.45 620.73,214.52 619.19,210.12 C618.02,206.75 618.94,206.02 621.10,208.62 C622.06,209.77 622.46,213.65 622.47,221.98 L 622.50 233.71 L 624.48 230.60 C626.12,228.02 626.44,225.86 626.36,217.80 L 626.27 208.10 L 626.38 217.85 C626.50,227.23 626.36,227.88 622.69,235.32 C620.59,239.56 617.74,243.78 616.35,244.69 L 613.83 246.34 ZM 334.00 316.18 C334.00,315.69 339.96,315.03 347.25,314.70 C352.63,314.45 363.66,313.39 374.82,312.08 C368.70,312.84 363.19,313.52 359.50,313.97 L 344.50 315.77 L 361.00 315.88 C366.54,315.92 376.12,315.84 386.23,315.70 C376.12,315.96 365.76,316.22 358.25,316.42 C344.53,316.78 334.00,316.67 334.00,316.18 ZM 302.18 768.87 C262.60,766.29 237.81,765.40 255.50,767.42 C257.04,767.59 260.08,767.99 263.80,768.49 C259.66,767.99 256.01,767.59 253.75,767.41 C248.94,767.03 245.00,766.28 245.00,765.74 C245.00,765.14 247.25,764.97 250.75,765.32 C253.91,765.63 267.52,766.60 281.00,767.46 C287.08,767.86 294.64,768.36 302.18,768.87 ZM 550.30 308.11 C553.73,307.12 556.86,305.98 557.91,305.31 L 560.31 303.75 L 557.14 302.42 C554.27,301.21 553.12,299.98 553.28,297.66 C553.31,298.60 553.79,299.23 554.80,300.24 C556.68,302.13 556.81,302.14 556.66,300.43 C556.62,299.92 556.72,299.46 556.99,299.03 C557.26,299.90 560.19,300.50 566.00,300.50 C566.22,300.50 566.44,300.50 566.67,300.50 C563.63,300.92 561.00,301.69 561.00,302.55 C561.00,304.30 557.55,306.10 550.30,308.11 ZM 224.84 446.81 C220.93,446.46 217.01,446.11 213.80,445.84 C199.74,444.63 196.12,443.00 207.49,443.00 C208.97,443.00 212.09,442.84 216.10,442.58 C206.14,443.49 204.54,443.88 205.15,444.48 C205.46,444.80 212.76,445.64 224.84,446.81 ZM 387.28 310.52 C402.47,308.50 414.40,307.02 422.62,306.15 C416.32,306.87 406.93,308.02 398.00,309.16 C394.65,309.59 391.00,310.05 387.28,310.52 ZM 592.00 304.46 L 592.31 304.53 C590.44,304.20 588.28,303.85 586.14,303.52 C585.34,303.39 584.55,303.26 583.78,303.12 C585.69,303.25 589.22,303.82 592.00,304.46 ZM 621.01 249.72 C622.12,250.16 622.95,250.39 623.15,250.30 C624.16,249.84 626.58,246.15 628.73,242.17 C626.63,246.07 624.25,249.73 623.14,250.41 C622.83,250.61 621.93,250.30 621.01,249.72 ZM 687.01 299.56 C687.02,299.59 687.03,299.63 687.03,299.66 C687.86,303.64 687.69,307.85 686.73,311.70 C687.68,307.85 687.84,303.62 687.01,299.56 ZM 598.05 305.68 C599.09,305.77 599.67,305.64 600.08,305.25 C599.59,305.81 598.99,305.90 598.05,305.68 ZM 672.14 324.25 C671.85,324.05 671.51,323.76 671.14,323.41 C671.33,323.56 671.52,323.72 671.72,323.86 C673.34,325.07 674.12,325.70 674.90,325.79 C674.19,325.71 673.49,325.20 672.14,324.25 ZM 686.73 311.70 C685.40,317.07 682.52,321.71 678.60,324.10 C682.50,321.73 685.39,317.06 686.73,311.70 ZM 434.02 312.44 L 433.34 314.50 L 433.24 314.50 ZM 365.00 773.28 L 365.00 773.30 L 356.25 772.67 L 354.44 772.55 C355.36,772.61 356.14,772.66 356.75,772.71 ZM 561.35 296.59 C563.38,295.98 566.14,295.42 569.75,294.85 C566.25,295.40 563.44,296.00 561.35,296.59 ZM 346.00 779.37 C336.38,778.15 320.85,776.18 311.50,774.99 C309.92,774.79 308.18,774.57 306.35,774.33 C308.19,774.57 309.93,774.79 311.50,774.99 C320.85,776.18 336.38,778.15 346.00,779.37 ZM 391.73 723.00 C391.28,723.00 390.82,723.00 390.34,723.00 C390.29,723.00 390.24,723.00 390.19,723.00 C390.72,723.00 391.23,723.00 391.73,723.00 Z" fill="rgb(68,64,46)"/>
<path d="M 258.00 739.11 C254.97,738.27 254.51,735.99 255.95,728.83 C256.53,725.90 257.22,722.15 257.48,720.50 C257.73,718.85 258.61,713.22 259.44,708.00 C260.26,702.78 261.81,692.65 262.88,685.50 C267.51,654.42 268.37,649.78 269.72,648.42 C270.87,647.27 275.62,647.00 294.47,647.00 C322.00,647.00 327.86,648.14 334.15,654.72 C338.70,659.48 339.57,661.20 340.82,668.00 C341.95,674.08 341.05,680.99 338.42,686.53 C335.90,691.84 329.58,698.43 325.06,700.47 C323.47,701.19 322.38,701.60 321.92,702.37 C321.01,703.89 322.45,706.82 327.09,716.23 C327.37,716.80 327.66,717.40 327.97,718.02 C331.10,724.37 334.16,731.02 334.78,732.79 C335.39,734.55 336.27,736.00 336.72,736.00 C337.17,736.00 340.34,730.49 343.76,723.75 C347.18,717.01 354.73,702.50 360.55,691.50 C366.36,680.50 373.82,666.34 377.11,660.03 C380.41,653.72 383.64,648.21 384.30,647.79 C384.96,647.37 391.90,647.02 399.73,647.02 L 400.67 647.01 C409.27,647.00 413.06,647.00 415.04,648.89 C416.68,650.45 417.09,653.30 417.94,658.50 C419.22,666.30 432.75,733.58 433.54,736.11 C434.60,739.48 431.50,740.31 419.94,739.76 C406.92,739.14 405.01,738.10 404.99,731.60 C404.98,731.19 404.99,730.79 404.99,730.42 C404.99,727.53 404.99,725.76 404.13,724.68 C402.85,723.07 399.66,722.99 391.73,723.00 L 391.67 723.00 C391.19,723.00 390.70,723.00 390.19,723.00 L 390.19 723.00 C389.50,723.00 388.78,723.00 388.03,723.00 L 372.30 723.00 L 369.07 730.00 C367.30,733.85 364.88,737.67 363.70,738.50 C361.35,740.14 350.57,740.43 341.20,739.10 C338.04,738.65 335.67,738.73 335.31,739.30 C334.52,740.59 312.05,739.63 309.37,738.20 C308.24,737.59 306.51,734.94 305.54,732.30 C304.57,729.66 302.52,724.58 300.99,721.00 C299.45,717.42 297.65,713.04 296.98,711.25 C295.86,708.27 295.39,708.00 291.45,708.00 C288.19,708.00 287.01,708.43 286.65,709.75 C286.17,711.47 283.62,725.87 282.49,733.22 C281.64,738.79 279.15,740.02 269.03,739.90 C264.34,739.85 259.38,739.49 258.00,739.11 ZM 436.50 464.60 C429.33,461.30 419.04,449.63 421.30,447.37 C421.56,447.10 447.14,446.74 478.14,446.56 C540.46,446.20 537.46,446.51 546.97,439.52 C549.59,437.60 554.14,432.54 557.10,428.26 C560.05,423.99 566.85,414.65 572.21,407.50 C582.96,393.17 587.51,385.39 589.68,377.63 C590.60,374.34 591.37,364.44 591.82,350.00 C592.60,324.91 593.14,322.85 600.05,318.19 C603.15,316.10 604.20,315.94 610.99,316.52 C627.62,317.95 646.45,325.82 659.10,336.17 C658.76,335.97 658.46,335.83 658.21,335.76 C656.72,335.37 657.19,336.78 660.63,342.89 C662.98,347.08 665.34,351.00 665.87,351.62 C667.71,353.75 671.69,362.52 672.97,367.25 C674.18,371.71 674.00,376.48 672.44,381.75 C671.88,383.61 672.02,383.94 675.02,383.99 L 668.68 384.27 C659.21,384.69 654.89,385.37 649.28,387.33 C631.99,393.39 619.23,402.85 605.91,419.50 C601.95,424.45 596.79,430.75 594.46,433.50 C592.12,436.25 588.35,440.98 586.08,444.00 C579.66,452.57 573.35,458.62 568.39,460.95 C558.58,465.56 555.47,465.79 497.00,466.37 L 441.50 466.91 ZM 706.50 741.24 C693.59,740.14 686.34,737.27 678.87,730.28 C672.15,724.00 669.23,717.55 668.10,706.50 C666.52,690.97 669.54,677.97 677.53,665.95 C686.67,652.21 701.52,645.06 721.07,645.02 C741.23,644.97 753.66,651.42 760.55,665.51 C763.02,670.56 763.43,672.72 763.79,682.40 C764.42,699.57 759.95,713.81 750.51,724.75 C746.49,729.42 735.96,736.12 728.96,738.48 C724.18,740.10 711.42,741.66 706.50,741.24 ZM 570.38 737.55 C570.08,736.76 570.36,733.05 571.02,729.30 C571.67,725.56 572.41,720.92 572.66,719.00 C572.91,717.08 574.20,708.75 575.51,700.50 C576.83,692.25 578.18,683.47 578.52,681.00 C578.86,678.53 579.54,675.15 580.02,673.50 C580.51,671.85 581.39,666.07 581.97,660.66 C582.55,655.24 583.49,649.96 584.05,648.91 C585.01,647.12 586.46,647.00 607.35,647.00 C632.37,647.00 640.81,648.38 648.39,653.71 C657.82,660.34 662.00,669.64 662.00,684.02 C662.00,704.74 652.62,723.92 638.56,731.96 C628.46,737.75 620.57,739.00 594.31,739.00 C574.84,739.00 570.84,738.76 570.38,737.55 ZM 443.25 739.32 C441.13,739.03 440.00,738.32 440.00,737.28 C440.00,736.41 441.33,727.55 442.96,717.60 C444.59,707.64 447.07,692.30 448.48,683.50 C452.31,659.45 454.20,649.63 455.28,648.25 C456.57,646.58 498.23,646.51 506.47,648.16 C514.70,649.82 520.85,654.24 524.33,661.00 C526.99,666.15 527.14,667.10 526.74,676.00 C526.45,682.48 525.75,686.60 524.54,688.94 C522.05,693.73 513.22,702.85 509.01,704.98 C503.24,707.90 491.72,710.00 481.52,710.00 C474.76,710.00 471.80,710.37 471.49,711.25 C471.24,711.94 470.19,718.04 469.16,724.81 C468.13,731.57 466.75,737.65 466.10,738.31 C464.89,739.52 449.61,740.20 443.25,739.32 ZM 417.26 432.66 C414.94,430.23 411.02,427.29 408.54,426.12 C404.14,424.06 402.80,424.00 359.01,424.00 C334.25,424.00 314.00,423.80 314.00,423.56 C314.00,422.76 315.33,420.39 317.34,417.36 C317.26,417.49 317.19,417.62 317.12,417.75 C315.08,421.60 317.78,420.31 320.37,416.20 C321.69,414.11 326.54,408.96 331.14,404.75 C342.03,394.79 352.07,389.16 370.50,382.67 C379.21,379.60 380.03,379.50 396.00,379.50 C410.90,379.50 413.15,379.73 419.14,381.90 C422.80,383.22 427.19,385.61 428.90,387.21 C432.46,390.54 435.95,396.84 436.10,400.21 C436.20,402.45 436.22,402.44 437.00,400.00 C439.25,392.98 436.87,384.54 431.17,379.32 C425.70,374.30 420.83,372.94 402.82,371.37 L 386.64 369.96 C394.37,368.30 400.83,367.91 409.00,368.31 C422.62,368.97 427.73,370.38 434.72,375.39 C441.07,379.96 443.48,383.70 445.45,392.07 C447.65,401.39 447.31,409.86 444.15,424.00 L 441.36 436.50 L 431.41 436.78 L 421.46 437.06 ZM 595.00 266.57 C578.84,262.07 546.42,237.90 542.38,227.33 C541.61,225.30 541.24,222.90 541.24,220.28 C541.33,220.92 541.70,220.55 542.47,219.56 C543.31,218.49 544.00,216.78 544.00,215.75 C544.00,208.33 558.22,190.99 567.63,186.93 C574.41,184.01 586.77,182.00 597.95,182.00 C604.15,182.00 606.84,181.62 606.26,181.06 C615.31,183.47 621.81,187.52 626.94,193.75 C629.74,197.14 632.53,203.80 631.56,204.77 C631.35,204.99 626.33,204.18 620.40,202.98 C611.28,201.13 607.79,200.90 597.57,201.46 C590.93,201.82 582.68,202.08 579.24,202.03 C575.79,201.98 572.05,202.44 570.93,203.04 C565.77,205.80 563.41,215.08 566.42,220.80 C570.07,227.75 590.93,243.36 602.22,247.60 C608.77,250.06 619.45,254.34 619.94,254.72 C620.86,255.41 610.35,265.29 607.28,266.61 C603.47,268.26 601.04,268.25 595.00,266.57 ZM 711.50 408.42 C716.45,410.90 720.78,412.94 721.12,412.96 C721.46,412.98 719.21,410.37 716.12,407.15 C714.76,405.74 713.34,404.43 711.85,403.22 C713.85,404.75 715.81,406.45 717.76,408.34 C721.75,412.20 726.37,417.45 728.01,420.01 C731.14,424.89 735.38,435.95 734.47,436.86 C734.18,437.15 732.52,435.66 730.78,433.55 C726.59,428.46 714.58,420.72 706.83,418.10 C697.83,415.06 681.60,415.16 669.45,418.34 C658.61,421.17 651.19,424.34 650.36,426.50 C650.03,427.38 650.52,430.66 651.46,433.80 C652.40,436.93 654.44,444.37 656.00,450.33 C657.55,456.28 659.12,461.46 659.49,461.83 C660.39,462.72 663.00,459.06 663.00,456.90 C663.00,456.65 662.94,456.21 662.82,455.63 L 663.41 457.78 L 660.69 461.89 C657.07,467.37 651.91,470.59 646.22,470.96 L 645.52 466.29 C644.71,460.89 643.50,457.52 637.24,443.25 C632.23,431.83 631.36,431.26 625.00,435.15 C620.96,437.63 600.25,447.00 598.81,447.00 C597.73,447.00 597.95,446.70 612.75,428.11 C637.91,396.51 645.41,391.97 672.43,392.02 C681.92,392.03 689.68,392.98 696.47,395.15 C689.51,393.01 681.33,392.05 671.50,392.12 C653.99,392.24 649.44,394.00 663.00,395.42 C681.59,397.35 698.35,401.85 711.50,408.42 ZM 529.63 739.15 C529.29,739.09 528.99,739.08 528.76,738.95 C527.46,738.25 528.10,733.95 533.59,697.03 L 534.41 691.50 C539.40,658.01 541.03,649.22 542.50,648.00 C543.29,647.34 548.33,647.04 555.64,647.22 L 567.50 647.50 L 567.83 650.40 C568.13,652.99 567.12,659.94 562.36,688.00 C560.97,696.20 557.94,715.52 555.93,729.00 C554.48,738.66 554.39,738.82 549.70,739.51 C545.69,740.10 533.57,739.88 529.63,739.15 ZM 453.39 432.82 C456.34,418.07 456.31,399.40 453.33,387.50 C451.24,379.17 444.81,367.21 439.73,362.22 C433.29,355.90 423.74,352.83 408.71,352.22 C400.60,351.90 397.03,351.40 397.29,350.63 C397.75,349.22 409.67,348.19 421.35,348.55 C429.27,348.79 430.90,349.19 436.85,352.33 C463.73,366.54 470.36,369.04 484.89,370.42 C487.85,370.71 490.46,371.12 490.68,371.35 C490.91,371.57 488.68,376.20 485.74,381.63 C475.73,400.09 461.89,428.88 461.32,432.45 C460.77,435.83 460.55,436.00 456.74,436.00 C452.79,436.00 452.76,435.97 453.39,432.82 ZM 721.60 716.95 C726.57,714.55 730.47,709.78 733.34,702.63 C734.93,698.64 735.40,695.16 735.44,687.00 C735.51,674.86 734.18,671.26 728.64,668.63 C722.34,665.65 711.19,666.92 705.96,671.23 C697.31,678.36 692.81,701.87 698.27,711.40 C702.51,718.79 712.76,721.23 721.60,716.95 ZM 506.04 311.20 C504.13,310.27 501.50,307.92 500.19,306.00 C498.21,303.09 497.90,301.66 498.34,297.50 C498.95,291.77 501.96,282.24 505.60,274.57 C508.17,269.13 517.33,258.00 519.23,258.00 C519.83,258.00 519.62,258.79 518.78,259.75 C514.51,264.61 511.03,275.38 511.01,283.75 L 511.00 289.00 L 527.25 289.12 C547.64,289.26 553.86,289.53 554.61,290.27 C554.93,290.60 554.65,292.52 553.99,294.54 C553.51,296.00 553.26,296.92 553.28,297.66 C553.12,299.98 554.27,301.21 557.14,302.42 L 560.31 303.75 L 557.91 305.31 C556.86,305.98 553.73,307.12 550.30,308.11 C549.40,308.36 548.44,308.61 547.43,308.87 C530.24,313.21 512.19,314.22 506.04,311.20 ZM 615.30 717.07 C626.58,714.45 633.12,704.40 634.55,687.50 C635.07,681.43 634.84,679.90 632.82,676.00 C631.46,673.36 629.26,670.89 627.50,670.03 C624.81,668.70 608.00,667.16 608.00,668.23 C608.00,668.48 607.31,673.14 606.48,678.59 C605.10,687.51 601.00,716.01 601.00,716.63 C601.00,716.88 605.96,717.57 609.50,717.82 C610.60,717.89 613.21,717.56 615.30,717.07 ZM 657.50 325.24 C656.40,325.02 650.25,322.61 643.83,319.88 C637.41,317.15 627.85,313.57 622.58,311.92 L 613.00 308.93 L 613.00 297.24 L 620.14 294.01 C619.39,294.43 618.84,294.79 618.55,295.08 C616.52,297.05 622.19,295.89 628.38,293.06 C631.91,291.44 637.43,289.36 640.65,288.45 C648.55,286.19 649.99,284.58 643.46,285.30 C641.17,285.55 635.57,287.42 630.23,289.51 C640.15,285.28 644.96,284.19 654.34,283.45 L 663.18 282.75 L 660.78 286.62 C655.02,295.91 654.27,304.14 657.96,317.58 C659.12,321.81 659.94,325.35 659.78,325.45 C659.63,325.55 658.60,325.45 657.50,325.24 ZM 592.00 304.46 C589.22,303.82 585.69,303.25 583.78,303.12 C579.59,302.37 576.04,301.45 575.40,300.92 C574.32,300.02 570.22,300.02 566.67,300.50 C566.56,300.50 566.46,300.50 566.35,300.50 C571.50,300.01 573.76,299.32 575.52,297.79 C579.03,294.74 578.68,293.60 573.65,294.16 C576.24,293.64 578.00,293.15 578.00,292.90 C578.00,291.53 574.51,289.44 569.60,287.89 L 564.50 286.27 L 568.50 284.46 C570.70,283.46 575.46,282.45 579.09,282.22 C584.05,281.90 587.55,282.49 591.16,284.67 C589.04,283.55 586.75,283.03 584.30,283.09 C580.88,283.16 580.76,283.25 583.09,283.96 C585.52,284.69 590.90,287.76 592.00,289.03 C592.28,289.35 593.62,290.38 594.99,291.32 C598.34,293.62 598.92,291.61 595.86,288.33 C595.67,288.13 595.48,287.94 595.29,287.75 C596.08,288.44 596.90,289.20 597.75,290.05 L 597.76 290.05 C598.16,290.45 598.53,290.84 598.88,291.22 C600.33,292.84 601.27,294.35 601.74,295.93 C602.41,298.18 602.12,300.56 600.98,303.55 C600.68,304.34 600.40,304.89 600.08,305.25 C599.67,305.64 599.09,305.77 598.05,305.68 C597.95,305.65 597.84,305.63 597.73,305.59 C597.02,305.39 594.94,304.99 592.31,304.53 ZM 491.79 688.01 C495.19,686.47 496.51,685.09 498.13,681.44 C500.40,676.31 500.07,673.07 496.97,669.97 C495.32,668.32 493.63,668.00 486.66,668.00 L 478.32 668.00 L 477.19 674.75 C476.18,680.76 475.61,687.13 475.90,689.25 C476.11,690.82 487.56,689.93 491.79,688.01 ZM 304.17 687.97 C312.77,685.58 317.17,674.64 311.37,670.07 C309.21,668.38 307.31,668.00 300.91,668.00 L 293.09 668.00 L 292.51 671.75 C292.19,673.81 291.44,678.05 290.85,681.16 C290.25,684.27 290.07,687.31 290.44,687.91 C291.29,689.28 299.32,689.32 304.17,687.97 ZM 362.00 368.44 C362.00,366.33 362.42,363.88 363.07,361.68 C363.02,362.14 363.00,362.63 363.00,363.13 C363.00,366.05 366.61,364.68 371.13,360.05 C373.13,358.00 376.73,355.32 379.13,354.08 L 383.50 351.84 L 377.50 352.52 C377.02,352.57 376.56,352.63 376.11,352.69 C383.84,350.86 393.35,349.01 393.84,349.51 C394.10,349.77 393.64,350.78 392.80,351.74 C390.58,354.32 388.93,359.89 389.61,362.58 C390.27,365.22 390.20,365.25 378.16,366.99 C374.13,367.57 369.24,368.71 367.29,369.52 C362.52,371.52 362.00,371.41 362.00,368.44 ZM 399.99 698.25 C399.98,694.24 396.59,676.26 395.68,675.34 C395.03,674.70 387.90,688.60 385.13,695.89 C384.09,698.64 383.48,701.15 383.78,701.45 C384.09,701.75 387.86,702.00 392.17,702.00 L 400.00 702.00 ZM 631.75 367.25 C632.04,373.16 632.63,378.00 633.06,378.00 C633.49,378.00 634.38,376.38 635.03,374.41 C636.55,369.81 635.49,357.53 632.93,349.83 C630.79,343.43 624.40,332.00 622.95,332.00 C621.74,332.00 621.72,334.50 622.92,336.76 C628.71,347.75 631.21,356.39 631.75,367.25 ZM 577.17 693.00 C577.20,696.18 577.27,696.27 578.00,694.00 C578.44,692.62 578.81,690.15 578.83,688.50 C578.85,685.95 578.73,685.80 578.00,687.50 C577.53,688.60 577.15,691.08 577.17,693.00 ZM 663.82 340.45 C664.46,341.10 665.07,341.75 665.66,342.41 C668.36,345.44 670.88,348.93 673.07,352.59 C670.35,348.29 666.85,343.74 663.82,340.45 ZM 356.96 379.90 C349.31,383.75 342.66,388.72 334.26,396.39 C332.72,397.80 330.82,399.79 328.86,402.03 C330.47,400.13 331.95,398.51 333.13,397.41 C341.94,389.15 348.94,383.90 356.96,379.90 ZM 672.72 444.69 C671.27,442.88 669.20,441.77 666.45,441.29 C667.58,441.44 668.63,441.67 669.39,441.96 C670.70,442.46 671.82,443.41 672.72,444.69 ZM 541.55 216.50 C541.42,217.61 541.32,218.47 541.27,219.11 C541.46,214.39 542.75,209.09 544.88,204.06 C543.23,208.06 542.06,212.31 541.55,216.50 ZM 672.54 465.51 C674.32,462.24 675.34,458.71 675.36,455.14 C675.37,453.74 675.31,452.46 675.16,451.28 C675.84,455.82 675.13,461.11 672.72,465.21 C672.66,465.31 672.60,465.41 672.54,465.51 ZM 679.73 383.79 C680.90,383.44 681.07,382.53 681.47,380.16 L 680.87 383.74 ZM 659.81 441.25 C659.12,441.49 659.04,441.94 659.28,442.75 C659.48,443.42 660.06,445.47 660.72,447.90 C659.76,444.80 659.02,442.12 659.01,441.75 C659.01,441.53 659.31,441.37 659.81,441.25 ZM 680.01 367.87 C681.45,372.56 682.03,376.84 681.49,380.03 C681.98,376.95 681.40,372.59 680.01,367.87 ZM 367.68 354.96 C366.70,355.46 365.89,356.05 365.24,356.72 C365.61,356.17 366.00,355.75 366.39,355.50 C366.61,355.36 367.06,355.17 367.68,354.96 ZM 659.64 478.21 C655.05,480.83 649.88,482.39 644.50,482.68 C649.88,482.39 655.08,480.76 659.64,478.21 ZM 561.35 296.59 C562.53,296.26 563.93,295.92 565.56,295.59 C563.35,296.07 561.56,296.52 560.18,296.98 C560.54,296.85 560.93,296.72 561.35,296.59 ZM 640.81 470.56 C639.70,470.17 638.94,469.48 637.97,468.25 C638.86,469.38 639.77,470.13 640.81,470.56 ZM 378.23 372.10 L 376.09 372.73 C376.82,372.51 377.53,372.30 378.23,372.10 Z" fill="rgb(251,214,31)"/>
<path d="M 395.20 795.80 C393.51,794.11 393.51,758.89 395.20,757.20 C395.86,756.54 398.56,756.00 401.20,756.00 L 406.00 756.00 L 406.00 771.96 L 406.00 787.92 L 414.75 788.21 L 423.50 788.50 L 423.21 791.50 C422.68,797.11 422.96,797.00 409.23,797.00 C400.58,797.00 396.01,796.61 395.20,795.80 ZM 432.40 795.61 C431.88,794.26 446.09,759.80 448.24,757.22 C448.96,756.34 451.31,756.01 455.40,756.21 L 461.49 756.50 L 467.34 775.00 C470.55,785.17 473.25,794.17 473.34,795.00 C473.46,796.15 472.35,796.50 468.50,796.50 C463.71,796.50 463.42,796.34 461.67,792.75 L 459.84 789.00 L 452.57 789.00 L 445.30 789.00 L 443.73 793.00 C442.22,796.86 442.00,797.00 437.55,797.00 C434.54,797.00 432.75,796.52 432.40,795.61 ZM 457.22 779.44 C457.89,778.77 454.88,769.00 454.01,769.00 C453.41,769.00 449.99,777.75 450.00,779.25 C450.00,780.11 456.38,780.28 457.22,779.44 ZM 485.16 795.69 C484.26,794.61 484.28,789.82 485.24,775.39 L 486.50 756.50 L 491.93 756.50 L 497.35 756.50 L 501.48 765.84 C503.75,770.97 505.97,775.16 506.41,775.14 C506.85,775.12 509.30,770.92 511.86,765.80 L 516.50 756.50 L 521.59 756.20 C524.92,756.01 526.99,756.36 527.59,757.20 C528.10,757.94 528.28,766.77 528.00,777.50 L 527.50 796.50 L 523.68 796.81 C517.82,797.30 517.00,796.01 517.00,786.38 C517.00,781.77 516.58,778.00 516.07,778.00 C515.56,778.00 513.96,780.50 512.52,783.56 C509.97,788.95 509.78,789.10 506.23,788.81 C502.36,788.48 501.81,787.83 498.36,779.50 C496.43,774.85 496.23,775.37 495.24,787.50 L 494.50 796.50 L 490.41 796.80 C487.80,796.99 485.90,796.59 485.16,795.69 ZM 543.37 795.75 C542.89,795.06 542.72,785.95 543.00,775.50 L 543.50 756.50 L 548.75 756.20 L 554.00 755.90 L 554.03 763.20 L 554.06 770.50 L 560.63 763.25 L 567.20 756.00 L 573.10 756.00 C576.34,756.00 579.00,756.28 579.00,756.63 C579.00,756.97 575.85,760.97 572.00,765.50 C568.15,770.03 565.00,774.04 565.00,774.41 C565.00,774.78 567.93,779.30 571.51,784.47 C580.40,797.32 580.34,797.00 573.86,796.98 C570.91,796.98 568.01,796.64 567.41,796.23 C566.80,795.83 564.17,792.58 561.55,789.00 C558.94,785.42 556.28,782.50 555.65,782.50 C554.97,782.50 554.29,784.95 554.00,788.50 C553.36,796.11 552.74,797.00 548.06,797.00 C545.96,797.00 543.85,796.44 543.37,795.75 ZM 586.61 796.18 C586.01,795.20 588.25,789.27 594.99,774.00 C597.30,768.78 599.79,763.11 600.54,761.42 C602.57,756.77 604.24,755.86 610.10,756.19 L 615.37 756.50 L 618.63 766.00 C621.93,775.58 627.00,793.67 627.00,795.83 C627.00,797.06 620.38,797.47 617.63,796.41 C616.79,796.09 615.59,794.29 614.97,792.41 L 613.84 789.00 L 607.17 789.00 L 600.50 789.01 L 598.50 792.75 C596.68,796.16 596.08,796.53 591.84,796.80 C589.28,796.97 586.93,796.69 586.61,796.18 ZM 610.70 777.25 C610.39,775.74 609.62,773.15 608.99,771.50 L 607.83 768.50 L 605.92 773.50 C604.86,776.25 604.00,778.84 604.00,779.25 C604.00,779.66 605.63,780.00 607.62,780.00 C611.05,780.00 611.22,779.85 610.70,777.25 ZM 346.00 779.37 C336.38,778.15 320.85,776.18 311.50,774.99 C302.15,773.80 287.08,771.77 278.00,770.47 C268.92,769.17 258.80,767.80 255.50,767.42 C234.34,765.00 273.96,766.75 327.00,770.57 C338.27,771.39 351.44,772.33 356.25,772.67 L 365.00 773.30 L 364.98 776.40 C364.98,778.10 364.64,779.97 364.23,780.55 C363.73,781.27 358.01,780.90 346.00,779.37 ZM 653.43 779.68 C653.11,778.85 653.00,776.89 653.18,775.33 L 653.50 772.50 L 677.00 771.34 C706.63,769.89 752.34,767.17 761.40,766.33 C766.52,765.85 768.13,765.98 767.60,766.84 C767.20,767.48 765.62,768.00 764.09,768.00 C762.55,768.00 739.97,770.66 713.90,773.92 C650.20,781.87 654.13,781.49 653.43,779.68 ZM 577.17 693.00 C577.15,691.08 577.53,688.60 578.00,687.50 C578.73,685.80 578.85,685.95 578.83,688.50 C578.81,690.15 578.44,692.62 578.00,694.00 C577.27,696.27 577.20,696.18 577.17,693.00 ZM 310.34 628.96 C296.44,626.21 287.20,615.86 286.27,602.00 C285.97,597.54 286.82,589.69 288.98,577.00 C290.71,566.83 292.83,554.00 293.69,548.50 C294.54,543.00 295.75,537.99 296.37,537.37 C297.02,536.73 302.78,536.00 309.80,535.67 C320.47,535.17 322.18,535.30 322.71,536.69 C323.05,537.56 321.22,550.93 318.65,566.39 C316.09,581.85 313.99,595.53 313.99,596.80 C314.00,600.52 316.68,604.62 319.97,605.99 C324.05,607.68 330.62,606.70 333.52,603.98 C337.03,600.68 340.12,592.51 341.65,582.50 C342.41,577.55 344.19,565.62 345.62,556.00 C347.21,545.32 348.80,537.85 349.70,536.83 C350.96,535.40 352.94,535.20 363.34,535.49 C373.06,535.76 375.56,536.12 375.80,537.30 C376.51,540.76 367.91,594.33 365.16,603.56 C362.68,611.89 355.42,620.74 347.96,624.52 C339.20,628.96 321.13,631.09 310.34,628.96 ZM 502.23 628.96 C494.77,627.62 488.20,623.99 482.84,618.26 C476.58,611.57 475.12,608.40 473.88,598.74 C471.28,578.61 475.74,562.01 487.08,549.60 C496.09,539.75 508.83,534.21 524.68,533.26 C537.77,532.48 552.73,535.85 559.37,541.08 L 561.91 543.07 L 558.18 548.84 C552.13,558.20 550.21,560.30 548.26,559.69 C547.29,559.38 544.70,558.45 542.50,557.61 C536.65,555.39 522.61,555.54 517.44,557.89 C512.15,560.29 506.54,566.94 503.92,573.92 C501.16,581.29 500.94,592.97 503.46,598.28 C506.76,605.22 517.66,609.59 525.35,607.05 C528.41,606.04 529.02,605.32 529.51,602.18 C529.83,600.16 530.28,597.26 530.52,595.75 C530.94,593.04 530.87,593.00 525.60,593.00 C518.37,593.00 517.83,592.12 519.53,583.21 C520.29,579.22 521.18,575.52 521.51,574.98 C521.87,574.40 529.65,574.00 540.69,574.00 L 559.25 574.00 L 558.73 578.75 C558.08,584.60 554.36,606.57 552.78,613.88 C551.81,618.39 550.98,619.73 547.65,622.14 C541.31,626.73 532.13,629.10 519.00,629.53 C512.67,629.73 505.13,629.48 502.23,628.96 ZM 669.50 628.62 C658.59,625.66 652.95,621.64 648.87,613.89 C645.03,606.61 645.55,593.86 650.93,563.50 C653.37,549.75 655.79,537.94 656.30,537.25 C656.97,536.36 660.99,536.00 670.12,536.00 C682.50,536.00 683.00,536.08 683.00,538.08 C683.00,539.22 680.97,552.49 678.50,567.55 C676.03,582.62 674.00,596.12 674.00,597.54 C674.00,601.20 675.59,603.74 678.98,605.49 C685.53,608.88 693.85,605.90 697.18,598.99 C698.10,597.07 700.97,582.67 703.54,567.00 C706.12,551.33 708.68,537.94 709.24,537.25 C710.38,535.84 734.52,535.42 735.37,536.79 C736.31,538.31 728.61,586.90 725.44,599.47 C721.99,613.13 714.08,622.46 702.09,627.03 C695.05,629.71 676.81,630.60 669.50,628.62 ZM 764.33 628.32 C761.49,628.09 758.70,627.34 758.12,626.65 C757.39,625.77 758.40,617.64 761.55,599.03 C764.01,584.53 766.30,569.59 766.65,565.83 L 767.29 559.00 L 755.77 559.00 C743.07,559.00 741.14,558.23 742.89,553.86 C743.41,552.56 744.39,548.58 745.07,545.00 C745.75,541.42 746.74,537.94 747.27,537.25 C748.72,535.39 824.85,535.44 825.56,537.29 C826.14,538.81 821.36,555.86 819.84,557.69 C819.15,558.52 814.96,559.03 807.17,559.22 L 795.53 559.50 L 789.97 592.75 C786.91,611.03 783.98,626.42 783.45,626.94 C782.29,628.11 771.37,628.89 764.33,628.32 ZM 222.15 626.68 C221.08,625.40 224.28,603.67 230.04,573.00 C232.94,557.53 234.04,559.00 219.58,559.00 C211.25,559.00 207.04,558.63 206.79,557.87 C206.21,556.14 209.86,538.87 211.13,537.35 C212.03,536.26 219.68,536.00 250.62,536.00 C294.74,536.00 290.30,534.59 287.00,547.52 C284.10,558.82 283.85,559.00 270.92,559.00 L 260.16 559.00 L 259.60 561.75 C259.29,563.26 257.66,573.28 255.98,584.00 C251.45,613.01 249.14,625.12 247.88,626.64 C246.30,628.55 223.73,628.58 222.15,626.68 ZM 376.40 626.60 C376.10,625.82 377.02,618.06 378.43,609.35 C379.84,600.63 382.99,580.98 385.44,565.68 C387.88,550.37 390.41,537.21 391.06,536.43 C392.43,534.78 410.21,534.37 414.20,535.89 C416.44,536.74 420.13,543.91 431.94,570.33 C433.79,574.47 435.49,577.01 436.25,576.76 C437.45,576.36 439.19,567.58 441.99,547.63 C443.73,535.30 444.11,535.00 458.03,535.00 C467.46,535.00 469.16,535.24 469.71,536.69 C470.40,538.48 469.09,546.93 459.36,603.50 C457.37,615.05 455.33,625.29 454.84,626.25 C454.06,627.74 452.43,628.00 443.62,628.00 C434.84,628.00 433.06,627.72 431.63,626.14 C430.70,625.12 427.77,619.38 425.12,613.39 C417.47,596.12 410.93,583.67 410.01,584.62 C409.55,585.11 407.76,594.05 406.05,604.50 C404.34,614.95 402.51,624.51 401.99,625.75 C401.08,627.91 400.54,628.00 388.99,628.00 C379.56,628.00 376.82,627.69 376.40,626.60 ZM 565.61 626.43 C565.08,625.05 568.34,603.62 576.08,557.50 C577.29,550.35 578.48,543.05 578.74,541.29 C579.00,539.52 579.78,537.60 580.48,537.02 C582.26,535.54 599.77,534.57 604.00,535.72 C606.11,536.29 607.42,537.23 607.29,538.08 C607.17,538.86 606.15,544.90 605.01,551.50 C603.87,558.10 602.54,566.20 602.04,569.50 C601.55,572.80 600.21,580.90 599.08,587.50 C597.94,594.10 597.01,600.74 597.01,602.25 L 597.00 605.00 L 616.50 605.00 C627.22,605.00 636.00,605.38 636.00,605.84 C636.00,607.36 632.02,622.44 630.88,625.25 L 629.76 628.00 L 597.99 628.00 C570.00,628.00 566.14,627.81 565.61,626.43 ZM 352.76 488.06 C348.49,486.68 343.42,483.24 340.11,479.47 C333.82,472.31 333.62,461.65 339.53,449.14 C342.12,443.66 343.39,441.94 344.54,442.38 C345.38,442.70 348.53,443.68 351.54,444.55 C354.54,445.43 357.00,446.56 357.00,447.07 C357.00,447.58 356.60,448.00 356.11,448.00 C354.60,448.00 352.00,455.80 352.01,460.27 C352.03,465.90 353.80,469.13 358.01,471.26 C361.83,473.19 368.37,472.84 373.00,470.46 C376.39,468.71 381.40,463.26 383.52,459.00 C384.47,457.08 385.39,455.35 385.55,455.16 C385.82,454.85 397.10,457.06 397.80,457.56 C397.97,457.67 396.65,460.86 394.87,464.64 C390.44,474.06 381.59,482.88 373.50,485.95 C366.92,488.44 357.05,489.45 352.76,488.06 ZM 529.83 483.59 C510.22,482.99 493.83,482.16 493.42,481.75 C493.00,481.34 493.98,480.98 495.58,480.95 C497.19,480.92 503.00,480.48 508.50,479.97 C517.94,479.08 546.28,476.93 568.54,475.41 L 578.59 474.73 L 580.47 479.11 C581.51,481.53 582.54,483.84 582.76,484.25 C583.23,485.12 577.85,485.06 529.83,483.59 ZM 634.50 481.65 C628.78,478.99 625.00,473.10 625.00,466.84 C625.00,462.46 627.72,453.91 630.04,451.00 L 632.03 448.50 L 634.48 451.47 C636.63,454.08 636.85,455.11 636.36,459.97 C635.87,464.66 636.12,465.92 637.97,468.25 C639.82,470.59 640.89,471.00 645.09,471.00 C651.23,471.00 656.83,467.73 660.69,461.89 L 663.41 457.78 L 661.61 451.14 C660.61,447.49 659.57,443.71 659.28,442.75 C658.85,441.29 659.43,441.00 662.82,441.00 C671.68,441.00 675.43,445.23 675.36,455.14 C675.26,468.80 660.66,481.83 644.50,482.68 C639.90,482.92 636.47,482.57 634.50,481.65 ZM 272.50 450.99 C233.99,447.83 205.77,445.11 205.15,444.48 C204.28,443.62 207.91,443.19 234.00,441.08 C264.64,438.60 302.91,436.58 303.73,437.39 C304.03,437.70 303.81,438.53 303.23,439.23 C302.66,439.93 301.28,443.20 300.17,446.50 C298.74,450.75 297.62,452.54 296.33,452.65 C295.32,452.73 284.60,451.98 272.50,450.99 ZM 317.12 417.75 C319.86,412.60 329.04,401.15 334.26,396.39 C348.46,383.42 357.67,378.16 375.13,373.01 L 385.76 369.88 L 402.82 371.37 C420.83,372.94 425.70,374.30 431.17,379.32 C436.87,384.54 439.25,392.98 437.00,400.00 C436.22,402.44 436.20,402.45 436.10,400.21 C435.95,396.84 432.46,390.54 428.90,387.21 C427.19,385.61 422.80,383.22 419.14,381.90 C413.15,379.73 410.90,379.50 396.00,379.50 C380.03,379.50 379.21,379.60 370.50,382.67 C352.07,389.16 342.03,394.79 331.14,404.75 C326.54,408.96 321.69,414.11 320.37,416.20 C317.78,420.31 315.08,421.60 317.12,417.75 ZM 242.00 413.14 C242.00,412.64 243.46,411.97 245.25,411.66 C252.90,410.33 304.39,404.00 307.56,404.00 L 309.82 404.00 L 307.51 408.80 L 305.19 413.59 L 273.60 413.83 C254.87,413.97 242.00,413.69 242.00,413.14 ZM 711.50 408.42 C698.35,401.85 681.59,397.35 663.00,395.42 C649.44,394.00 653.99,392.24 671.50,392.12 C692.44,391.97 705.87,396.50 716.12,407.15 C719.21,410.37 721.46,412.98 721.12,412.96 C720.78,412.94 716.45,410.90 711.50,408.42 ZM 213.00 386.00 C208.88,385.65 206.97,385.28 208.76,385.18 C210.55,385.08 224.73,383.41 240.26,381.47 C267.37,378.08 316.76,372.81 333.50,371.52 C340.08,371.01 341.15,371.12 339.50,372.14 C335.39,374.67 325.13,383.11 324.74,384.28 C324.10,386.20 231.95,387.62 213.00,386.00 ZM 672.44 381.75 C674.00,376.48 674.18,371.71 672.97,367.25 C671.69,362.52 667.71,353.75 665.87,351.62 C665.34,351.00 662.98,347.08 660.63,342.89 C657.19,336.78 656.72,335.37 658.21,335.76 C661.20,336.55 670.16,347.19 674.77,355.44 C679.65,364.16 682.44,374.45 681.47,380.16 C680.83,383.95 680.77,384.00 676.30,384.00 C672.07,384.00 671.81,383.85 672.44,381.75 ZM 631.75 367.25 C631.21,356.39 628.71,347.75 622.92,336.76 C621.72,334.50 621.74,332.00 622.95,332.00 C624.40,332.00 630.79,343.43 632.93,349.83 C635.49,357.53 636.55,369.81 635.03,374.41 C634.38,376.38 633.49,378.00 633.06,378.00 C632.63,378.00 632.04,373.16 631.75,367.25 ZM 363.00 363.13 C363.00,356.58 366.92,353.71 377.50,352.52 L 383.50 351.84 L 379.13 354.08 C376.73,355.32 373.13,358.00 371.13,360.05 C366.61,364.68 363.00,366.05 363.00,363.13 ZM 274.01 344.67 C274.29,344.38 283.97,342.96 295.51,341.52 C307.06,340.08 320.69,338.24 325.81,337.44 C330.93,336.64 346.90,334.39 361.31,332.45 C375.71,330.50 396.05,327.58 406.50,325.96 C416.95,324.34 426.77,323.01 428.32,323.01 C430.80,323.00 431.04,323.27 430.38,325.25 C429.97,326.49 429.38,329.30 429.07,331.50 L 428.50 335.50 L 416.00 336.64 C400.10,338.08 372.27,341.85 369.00,342.99 C366.34,343.93 273.14,345.58 274.01,344.67 ZM 671.72 323.86 C667.59,320.78 665.61,316.41 666.86,313.15 C667.43,311.69 668.39,307.93 669.00,304.80 C669.62,301.66 671.21,296.96 672.53,294.34 C674.97,289.53 674.64,288.05 671.13,288.02 C670.02,288.00 670.00,287.71 671.00,286.50 C675.03,281.64 684.96,289.69 686.99,299.46 C689.02,309.22 685.35,319.98 678.60,324.10 C674.84,326.40 675.13,326.41 671.72,323.86 ZM 359.50 313.97 C367.75,312.98 385.08,310.81 398.00,309.16 C410.92,307.51 424.82,305.84 428.89,305.46 L 436.27 304.77 L 435.63 307.34 C435.27,308.75 434.58,310.98 434.08,312.29 L 433.17 314.67 L 405.34 315.34 C390.03,315.70 370.08,315.94 361.00,315.88 L 344.50 315.77 L 359.50 313.97 ZM 446.00 305.58 C446.00,305.24 447.79,301.39 449.99,297.03 C454.72,287.60 466.43,273.30 474.62,266.92 C496.80,249.65 511.47,244.00 534.17,244.00 C541.88,244.00 545.90,244.35 545.50,245.00 C545.16,245.55 543.73,246.00 542.33,246.00 C538.50,246.00 524.34,249.61 517.26,252.39 C509.75,255.34 500.36,260.92 495.89,265.10 L 492.62 268.15 L 490.77 265.83 L 488.92 263.50 L 487.24 265.90 C486.31,267.22 485.50,269.78 485.44,271.58 C485.38,273.38 484.54,276.05 483.59,277.51 C481.93,280.03 481.77,280.08 480.48,278.33 C479.22,276.64 478.89,276.62 476.31,278.03 C474.76,278.88 473.36,280.57 473.18,281.79 C472.98,283.19 469.99,286.20 465.12,289.91 C460.86,293.15 454.82,298.14 451.69,301.00 C448.56,303.86 446.00,305.92 446.00,305.58 ZM 556.65 300.25 C555.58,298.52 558.34,297.11 565.89,295.52 C577.87,293.00 580.36,293.59 575.52,297.79 C573.63,299.44 571.16,300.11 565.16,300.61 C560.18,301.02 557.05,300.89 556.65,300.25 ZM 618.55 295.08 C620.79,292.89 638.84,285.81 643.46,285.30 C649.99,284.58 648.55,286.19 640.65,288.45 C637.43,289.36 631.91,291.44 628.38,293.06 C622.19,295.89 616.52,297.05 618.55,295.08 ZM 594.99 291.32 C593.62,290.38 592.28,289.35 592.00,289.03 C590.90,287.76 585.52,284.69 583.09,283.96 C580.76,283.25 580.88,283.16 584.30,283.09 C588.67,282.99 592.48,284.72 595.86,288.33 C598.92,291.61 598.34,293.62 594.99,291.32 ZM 618.17 248.46 L 613.83 246.34 L 616.35 244.69 C617.74,243.78 620.59,239.56 622.69,235.32 C626.36,227.88 626.50,227.23 626.38,217.85 L 626.27 208.10 L 629.38 208.71 C631.10,209.04 632.83,209.81 633.23,210.41 C634.61,212.45 634.04,228.52 632.39,234.07 C630.96,238.87 624.91,249.51 623.15,250.30 C622.79,250.46 620.55,249.63 618.17,248.46 ZM 541.55 216.50 C542.91,205.29 548.99,193.57 556.48,187.68 C566.32,179.95 578.00,177.24 594.22,178.93 C608.66,180.44 610.56,182.00 597.95,182.00 C586.77,182.00 574.41,184.01 567.63,186.93 C558.22,190.99 544.00,208.33 544.00,215.75 C544.00,216.78 543.31,218.49 542.47,219.56 C541.06,221.35 540.99,221.11 541.55,216.50 Z" fill="rgb(252,251,249)"/>
</g>
</svg>